<svg width="138" height="39" viewBox="0 0 138 39" fill="none" xmlns="http://www.w3.org/2000/svg">
<path d="M32.6777 32.6777C27.6009 37.7546 19.3698 37.7546 14.293 32.6777C9.21615 27.6009 9.21615 19.3698 14.293 14.293C19.3698 9.21615 27.6009 9.21615 32.6777 14.293C37.7546 19.3698 37.7546 27.6009 32.6777 32.6777Z" stroke="url(#paint0_linear_3_367)" stroke-width="4"/>
<path d="M24.1924 24.1924C19.1156 29.2692 10.8844 29.2692 5.80761 24.1924C0.730796 19.1156 0.730796 10.8844 5.80761 5.80761C10.8844 0.730796 19.1156 0.730796 24.1924 5.80761C29.2692 10.8844 29.2692 19.1156 24.1924 24.1924Z" stroke="url(#paint1_linear_3_367)" stroke-width="4"/>
<path d="M24.1925 24.1922C20.6481 27.7366 15.5633 28.809 11.0855 27.3997C9.67616 22.9218 10.7486 17.8371 14.293 14.2927C17.8373 10.7484 22.9221 9.67592 27.4 11.0852C28.8093 15.5631 27.7368 20.6478 24.1925 24.1922Z" stroke="url(#paint2_linear_3_367)" stroke-width="4"/>
<path d="M83.5895 20.6081C83.7329 21.5163 83.7807 22.5322 83.7329 23.6556C83.709 23.9424 83.5536 24.0858 83.2668 24.0858H72.1881C72.0447 24.0858 71.9969 24.1456 72.0447 24.2651C72.1164 24.7431 72.2479 25.2212 72.4391 25.6992C73.0606 27.0378 74.3274 27.707 76.2396 27.707C77.7693 27.6831 78.9764 27.0617 79.8607 25.8426C79.9564 25.6992 80.0639 25.6275 80.1834 25.6275C80.2551 25.6275 80.3388 25.6753 80.4344 25.7709L83.0158 28.3165C83.1354 28.436 83.1951 28.5436 83.1951 28.6392C83.1951 28.687 83.1473 28.7826 83.0517 28.926C82.2629 29.906 81.2471 30.6709 80.0042 31.2206C78.7612 31.7465 77.3988 32.0094 75.9169 32.0094C73.8613 32.0094 72.1164 31.5433 70.6823 30.6111C69.2721 29.6789 68.2562 28.3763 67.6348 26.7031C67.1328 25.508 66.8818 23.9424 66.8818 22.0063C66.8818 20.6917 67.0611 19.5325 67.4196 18.5286C67.9694 16.8315 68.9255 15.481 70.2879 14.4771C71.6742 13.4732 73.3115 12.9713 75.1998 12.9713C77.59 12.9713 79.5022 13.6645 80.9363 15.0508C82.3944 16.4371 83.2788 18.2895 83.5895 20.6081ZM75.2357 17.3454C73.7298 17.3454 72.7379 18.0505 72.2598 19.4607C72.1642 19.7715 72.0806 20.1539 72.0089 20.6081C72.0089 20.7276 72.0686 20.7873 72.1881 20.7873H78.3908C78.5342 20.7873 78.582 20.7276 78.5342 20.6081C78.4147 19.9149 78.3549 19.5803 78.3549 19.6042C78.1398 18.8871 77.7574 18.3373 77.2076 17.9549C76.6818 17.5486 76.0244 17.3454 75.2357 17.3454Z" fill="white"/>
<path d="M101.728 17.9908C102.182 19.2337 102.409 20.7156 102.409 22.4366C102.409 24.0858 102.206 25.5319 101.799 26.7748C101.25 28.4002 100.365 29.6789 99.1462 30.6111C97.9511 31.5433 96.5289 32.0094 94.8797 32.0094C93.1348 32.0094 91.7604 31.3521 90.7565 30.0375C90.7087 29.9897 90.6609 29.9777 90.6131 30.0016C90.5653 30.0016 90.5414 30.0375 90.5414 30.1092V31.2923C90.5414 31.4119 90.4936 31.5194 90.398 31.615C90.3263 31.6867 90.2307 31.7226 90.1112 31.7226H85.9163C85.7968 31.7226 85.6893 31.6867 85.5936 31.615C85.5219 31.5194 85.4861 31.4119 85.4861 31.2923V7.05549C85.4861 6.93598 85.5219 6.84037 85.5936 6.76866C85.6893 6.67305 85.7968 6.62524 85.9163 6.62524H90.1112C90.2307 6.62524 90.3263 6.67305 90.398 6.76866C90.4936 6.84037 90.5414 6.93598 90.5414 7.05549V14.7281C90.5414 14.7998 90.5653 14.8476 90.6131 14.8715C90.6609 14.8954 90.7087 14.8715 90.7565 14.7998C91.6887 13.6047 93.0153 13.0071 94.7362 13.0071C96.4811 13.0071 97.9391 13.4613 99.1104 14.3696C100.305 15.254 101.178 16.461 101.728 17.9908ZM96.4214 26.1295C96.9233 25.2212 97.1743 24.0261 97.1743 22.5441C97.1743 20.8949 96.8874 19.6281 96.3138 18.7437C95.7401 17.8115 94.8916 17.3454 93.7682 17.3454C92.7165 17.3454 91.9158 17.8115 91.366 18.7437C90.8402 19.652 90.5773 20.9068 90.5773 22.5083C90.5773 24.1097 90.8163 25.3168 91.2943 26.1295C91.868 27.1573 92.7046 27.6712 93.8041 27.6712C94.9753 27.6712 95.8477 27.1573 96.4214 26.1295Z" fill="white"/>
<path d="M115.044 13.7242C115.044 13.6047 115.08 13.5091 115.151 13.4374C115.247 13.3418 115.355 13.294 115.474 13.294H119.669C119.788 13.294 119.884 13.3418 119.956 13.4374C120.051 13.5091 120.099 13.6047 120.099 13.7242V31.2923C120.099 31.4119 120.051 31.5194 119.956 31.615C119.884 31.6867 119.788 31.7226 119.669 31.7226H115.474C115.355 31.7226 115.247 31.6867 115.151 31.615C115.08 31.5194 115.044 31.4119 115.044 31.2923V30.0733C115.044 30.0016 115.02 29.9658 114.972 29.9658C114.924 29.9419 114.876 29.9658 114.829 30.0375C113.873 31.3282 112.391 31.9736 110.383 31.9736C108.566 31.9736 107.072 31.4238 105.901 30.3243C104.73 29.2248 104.144 27.6831 104.144 25.6992V13.7242C104.144 13.6047 104.18 13.5091 104.252 13.4374C104.348 13.3418 104.455 13.294 104.575 13.294H108.734C108.853 13.294 108.949 13.3418 109.02 13.4374C109.116 13.5091 109.164 13.6047 109.164 13.7242V24.4444C109.164 25.4004 109.415 26.1773 109.917 26.7748C110.443 27.3724 111.16 27.6712 112.068 27.6712C112.881 27.6712 113.55 27.4321 114.076 26.9541C114.602 26.4521 114.924 25.8068 115.044 25.018V13.7242Z" fill="white"/>
<path d="M129.741 31.9736C128.139 31.9736 126.741 31.7465 125.546 31.2923C124.351 30.8382 123.419 30.2048 122.749 29.3921C122.104 28.5794 121.781 27.6592 121.781 26.6314V26.2729C121.781 26.1534 121.817 26.0578 121.889 25.9861C121.985 25.8904 122.092 25.8426 122.212 25.8426H126.191C126.311 25.8426 126.407 25.8904 126.478 25.9861C126.574 26.0578 126.622 26.1534 126.622 26.2729V26.3087C126.622 26.8346 126.908 27.2887 127.482 27.6712C128.08 28.0297 128.821 28.209 129.705 28.209C130.518 28.209 131.175 28.0536 131.677 27.7429C132.179 27.4082 132.43 27.0019 132.43 26.5239C132.43 26.0936 132.215 25.7709 131.785 25.5558C131.354 25.3407 130.649 25.1136 129.669 24.8746C128.546 24.5878 127.661 24.3129 127.016 24.05C125.486 23.5241 124.267 22.8788 123.359 22.1139C122.451 21.349 121.997 20.2495 121.997 18.8154C121.997 17.0466 122.678 15.6483 124.04 14.6205C125.427 13.5688 127.255 13.043 129.526 13.043C131.056 13.043 132.394 13.294 133.541 13.7959C134.689 14.274 135.573 14.9552 136.194 15.8396C136.84 16.7239 137.163 17.7278 137.163 18.8512C137.163 18.9707 137.115 19.0783 137.019 19.1739C136.947 19.2456 136.852 19.2815 136.732 19.2815H132.896C132.776 19.2815 132.669 19.2456 132.573 19.1739C132.502 19.0783 132.466 18.9707 132.466 18.8512C132.466 18.3254 132.191 17.8832 131.641 17.5247C131.115 17.1661 130.41 16.9869 129.526 16.9869C128.737 16.9869 128.092 17.1303 127.59 17.4171C127.088 17.7039 126.837 18.0983 126.837 18.6003C126.837 19.0783 127.076 19.4368 127.554 19.6759C128.056 19.9149 128.88 20.1659 130.028 20.4288C130.291 20.5005 130.589 20.5841 130.924 20.6798C131.259 20.7515 131.617 20.8471 132 20.9666C133.697 21.4685 135.035 22.1139 136.015 22.9027C136.995 23.6914 137.485 24.8387 137.485 26.3446C137.485 28.1134 136.78 29.4997 135.37 30.5036C133.984 31.4836 132.107 31.9736 129.741 31.9736Z" fill="white"/>
<path d="M58.8643 6.47583H47.7841C47.6191 6.47583 47.4854 6.6096 47.4854 6.77461V10.6587C47.4854 10.8237 47.6191 10.9575 47.7841 10.9575H58.8643C60.7479 10.9575 62.2749 12.4845 62.2749 14.3681C62.2749 16.2517 60.7479 17.7787 58.8643 17.7787H48.0963C47.83 17.7787 47.6967 18.1008 47.8852 18.289L61.0811 31.4604C61.2493 31.6283 61.4772 31.7225 61.7148 31.7224L66.9629 31.72C67.2292 31.7198 67.3623 31.3978 67.1739 31.2097L58.6725 22.724C58.5012 22.5531 58.6223 22.2604 58.8643 22.2604C63.223 22.2604 66.7565 18.7269 66.7565 14.3681C66.7565 10.0093 63.223 6.47583 58.8643 6.47583Z" fill="white"/>
<defs>
<linearGradient id="paint0_linear_3_367" x1="8.48535" y1="8.48535" x2="43.7795" y2="17.3089" gradientUnits="userSpaceOnUse">
<stop stop-color="#5084E9"/>
<stop offset="1" stop-color="#6F50E9"/>
</linearGradient>
<linearGradient id="paint1_linear_3_367" x1="0" y1="0" x2="35.2941" y2="8.82353" gradientUnits="userSpaceOnUse">
<stop stop-color="#E95062"/>
<stop offset="1" stop-color="#E950D0"/>
</linearGradient>
<linearGradient id="paint2_linear_3_367" x1="8.48535" y1="8.48511" x2="33.7968" y2="14.813" gradientUnits="userSpaceOnUse">
<stop stop-color="#5084E9"/>
<stop offset="1" stop-color="#E95062"/>
</linearGradient>
</defs>
</svg>
